<svg width="54" height="42" viewBox="0 0 54 42" fill="none" xmlns="http://www.w3.org/2000/svg">
<path d="M1.49316 31.9863H2.25049V34.1562H3.44287V34.8008H2.25049V40H1.49316V34.8008H0.467285V34.1562H1.49316V31.9863ZM4.28076 34.1562H5.04883V35.0103C5.27799 34.6737 5.51969 34.423 5.77393 34.2583C6.02816 34.09 6.29313 34.0059 6.56885 34.0059C6.77653 34.0059 6.99854 34.0721 7.23486 34.2046L6.84277 34.8384C6.68522 34.7703 6.55273 34.7363 6.44531 34.7363C6.19466 34.7363 5.95296 34.8402 5.72021 35.0479C5.48747 35.252 5.31022 35.5706 5.18848 36.0039C5.09538 36.3369 5.04883 37.0101 5.04883 38.0234V40H4.28076V34.1562ZM13.6963 34.1562V40H12.9551V38.9956C12.64 39.3787 12.2855 39.667 11.8916 39.8604C11.5013 40.0537 11.0734 40.1504 10.6079 40.1504C9.78076 40.1504 9.07357 39.8514 8.48633 39.2534C7.90267 38.6519 7.61084 37.9214 7.61084 37.062C7.61084 36.2205 7.90625 35.5008 8.49707 34.9028C9.08789 34.3049 9.79867 34.0059 10.6294 34.0059C11.1092 34.0059 11.5425 34.1079 11.9292 34.312C12.3195 34.5161 12.6615 34.8223 12.9551 35.2305V34.1562H13.6963ZM10.6885 34.731C10.2695 34.731 9.88281 34.8348 9.52832 35.0425C9.17383 35.2466 8.89095 35.5348 8.67969 35.9072C8.47201 36.2796 8.36816 36.6735 8.36816 37.0889C8.36816 37.5007 8.4738 37.8945 8.68506 38.2705C8.89632 38.6465 9.1792 38.9401 9.53369 39.1514C9.89176 39.359 10.2749 39.4629 10.6831 39.4629C11.0949 39.4629 11.4852 39.359 11.854 39.1514C12.2228 38.9437 12.5057 38.6626 12.7026 38.3081C12.9032 37.9536 13.0034 37.5544 13.0034 37.1104C13.0034 36.4336 12.7796 35.8678 12.332 35.4131C11.888 34.9583 11.3402 34.731 10.6885 34.731ZM14.8403 34.1562H15.6406L17.5957 38.4102L19.5347 34.1562H20.3403L17.6655 40H17.5312L14.8403 34.1562ZM26.415 38.061L27.0488 38.394C26.8411 38.8022 26.6012 39.1317 26.3291 39.3823C26.057 39.633 25.7508 39.8245 25.4106 39.957C25.0705 40.0859 24.6855 40.1504 24.2559 40.1504C23.3034 40.1504 22.5586 39.8389 22.0215 39.2158C21.4844 38.5892 21.2158 37.882 21.2158 37.0942C21.2158 36.353 21.4432 35.6924 21.8979 35.1123C22.4744 34.3747 23.2461 34.0059 24.2129 34.0059C25.2083 34.0059 26.0033 34.3836 26.5977 35.1392C27.0202 35.6727 27.235 36.3387 27.2422 37.1372H21.9893C22.0036 37.8175 22.2202 38.3761 22.6392 38.813C23.0581 39.2463 23.5755 39.4629 24.1914 39.4629C24.4886 39.4629 24.7769 39.411 25.0562 39.3071C25.339 39.2033 25.5789 39.0654 25.7759 38.8936C25.9728 38.7217 26.1859 38.4442 26.415 38.061ZM26.415 36.4873C26.3148 36.0863 26.168 35.7658 25.9746 35.5259C25.7848 35.286 25.5324 35.0926 25.2173 34.9458C24.9022 34.799 24.571 34.7256 24.2236 34.7256C23.6507 34.7256 23.1584 34.91 22.7466 35.2788C22.4458 35.5474 22.2184 35.9502 22.0645 36.4873H26.415ZM28.5366 31.9004H29.2886V40H28.5366V31.9004ZM39.5742 35.3701L38.978 35.7407C38.4624 35.0568 37.7588 34.7148 36.8672 34.7148C36.1546 34.7148 35.562 34.944 35.0894 35.4023C34.6203 35.8607 34.3857 36.4175 34.3857 37.0728C34.3857 37.4989 34.4932 37.8999 34.708 38.2759C34.9264 38.6519 35.2236 38.9437 35.5996 39.1514C35.9792 39.359 36.4035 39.4629 36.8726 39.4629C37.7319 39.4629 38.4338 39.1209 38.978 38.437L39.5742 38.8291C39.2949 39.248 38.9189 39.5739 38.4463 39.8066C37.9772 40.0358 37.4419 40.1504 36.8403 40.1504C35.9165 40.1504 35.1502 39.8568 34.5415 39.2695C33.9328 38.6823 33.6284 37.9679 33.6284 37.1265C33.6284 36.5607 33.7699 36.0361 34.0527 35.5527C34.3392 35.0658 34.7313 34.6862 35.229 34.4141C35.7267 34.1419 36.2835 34.0059 36.8994 34.0059C37.2861 34.0059 37.6585 34.0649 38.0166 34.1831C38.3783 34.3013 38.6844 34.4552 38.9351 34.645C39.1857 34.8348 39.3988 35.0765 39.5742 35.3701ZM41.0244 31.9004H41.7764V35.2036C42.0807 34.8026 42.4155 34.5036 42.7808 34.3066C43.146 34.1061 43.5417 34.0059 43.9678 34.0059C44.4046 34.0059 44.7913 34.1169 45.1279 34.3389C45.4681 34.5609 45.7188 34.8599 45.8799 35.2358C46.041 35.6082 46.1216 36.1937 46.1216 36.9922V40H45.3696V37.2124C45.3696 36.5392 45.3428 36.0898 45.2891 35.8643C45.196 35.4775 45.0259 35.1875 44.7788 34.9941C44.5353 34.7972 44.2148 34.6987 43.8174 34.6987C43.3626 34.6987 42.9544 34.8491 42.5928 35.1499C42.2347 35.4507 41.9984 35.8231 41.8838 36.2671C41.8122 36.5535 41.7764 37.0835 41.7764 37.8569V40H41.0244V31.9004ZM48.0015 31.75C48.1733 31.75 48.3201 31.8109 48.4419 31.9326C48.5636 32.0544 48.6245 32.2012 48.6245 32.373C48.6245 32.5413 48.5636 32.6864 48.4419 32.8081C48.3201 32.9299 48.1733 32.9907 48.0015 32.9907C47.8332 32.9907 47.6882 32.9299 47.5664 32.8081C47.4447 32.6864 47.3838 32.5413 47.3838 32.373C47.3838 32.2012 47.4447 32.0544 47.5664 31.9326C47.6882 31.8109 47.8332 31.75 48.0015 31.75ZM47.6255 34.1562H48.3828V40H47.6255V34.1562ZM49.8276 31.9004H50.5796V40H49.8276V31.9004ZM52.0298 31.9004H52.7817V40H52.0298V31.9004Z" fill="white"/>
<path d="M14.0531 14.2661C13.7604 14.4014 13.6313 14.742 13.7617 15.033L15.0987 17.8602C15.1644 18.0009 15.2842 18.1106 15.4316 18.1646C15.4961 18.1877 15.5646 18.1996 15.6335 18.1996C15.7196 18.2004 15.8047 18.1822 15.883 18.1472L25.9843 13.4996L25.0694 22.923C25.0517 23.1085 25.1243 23.2908 25.2652 23.4147C25.708 23.7758 26.2599 23.9815 26.8342 24C26.9925 23.9998 27.1499 23.9802 27.3034 23.9417C28.1235 23.7309 28.7593 23.0111 29.1931 21.7818L33.1682 10.1869L41.0411 6.5694C43.3585 5.50427 44.5528 3.34451 43.7508 1.65875C43.2956 0.777649 42.4238 0.178275 41.4274 0.0607833C40.3203 -0.103815 39.1887 0.0677485 38.1832 0.552747L29.0978 4.74928L19.3295 0.985689C18.0994 0.529285 17.1251 0.541016 16.4418 1.02693C15.8685 1.4903 15.5423 2.18682 15.5562 2.91725C15.5622 3.10256 15.6569 3.27394 15.8117 3.37989L22.3893 7.83395L18.6224 9.58991L12.3059 8.00936C12.047 7.94667 11.7776 8.0616 11.6464 8.29035L10.072 11.0821C9.99032 11.23 9.97748 11.4056 10.0368 11.5636C10.0958 11.7218 10.2212 11.847 10.3811 11.9075L15.0574 13.8099L14.0531 14.2661ZM16.7741 2.62471C16.8091 2.37726 16.9362 2.15199 17.1308 1.99253C17.4697 1.75241 18.0876 1.7876 18.9134 2.09187L27.6125 5.43407L23.6431 7.26024L16.7741 2.62471ZM11.4266 11.0764L12.4605 9.26786L18.5391 10.7544C18.67 10.787 18.8083 10.7747 18.9315 10.7196L38.6884 1.6296C39.4738 1.24798 40.3584 1.10905 41.2255 1.23149C41.8336 1.28666 42.3753 1.63235 42.6754 2.15621C43.1741 3.20997 42.1939 4.74928 40.5359 5.51014L33.6909 8.67106L34.107 7.45911C34.2121 7.14733 34.0404 6.81043 33.7238 6.70705C33.4069 6.60367 33.0651 6.77285 32.9602 7.08464L28.0699 21.4187C27.7787 22.2325 27.4162 22.7184 27.0122 22.8234C26.762 22.8709 26.5029 22.8225 26.2873 22.6891L27.4758 10.3973C27.5068 10.0742 27.2662 9.78732 26.9378 9.75671C26.6098 9.72573 26.3185 9.9631 26.2873 10.2862L26.1033 12.165L15.9066 16.8475L15.0693 15.0915L16.7445 14.3191C16.9602 14.2254 17.0992 14.0154 17.0992 13.7835C17.0992 13.5515 16.9602 13.3414 16.7445 13.2479L11.4266 11.0764Z" fill="white"/>
</svg>
