<svg width="37" height="48" viewBox="0 0 37 48" fill="none" xmlns="http://www.w3.org/2000/svg">
<path d="M0.359863 37.1206H1.25146L3.6416 42.4863L5.82764 37.0991H6.69238L3.69531 44.1997C3.41602 44.8657 2.92008 45.1987 2.20752 45.1987C1.92106 45.1987 1.65072 45.1396 1.39648 45.0215C1.14225 44.9069 0.819987 44.633 0.429688 44.1997L1.00439 43.7271C1.40186 44.1174 1.66683 44.3394 1.79932 44.3931C1.9318 44.4468 2.06608 44.4736 2.20215 44.4736C2.40983 44.4736 2.58887 44.4181 2.73926 44.3071C2.89323 44.1961 3.06152 43.9186 3.24414 43.4746L0.359863 37.1206ZM13.6211 40.3701L13.0249 40.7407C12.5093 40.0568 11.8057 39.7148 10.9141 39.7148C10.2015 39.7148 9.60889 39.944 9.13623 40.4023C8.66715 40.8607 8.43262 41.4175 8.43262 42.0728C8.43262 42.4989 8.54004 42.8999 8.75488 43.2759C8.97331 43.6519 9.27051 43.9437 9.64648 44.1514C10.026 44.359 10.4504 44.4629 10.9194 44.4629C11.7788 44.4629 12.4806 44.1209 13.0249 43.437L13.6211 43.8291C13.3418 44.248 12.9658 44.5739 12.4932 44.8066C12.0241 45.0358 11.4888 45.1504 10.8872 45.1504C9.96338 45.1504 9.1971 44.8568 8.58838 44.2695C7.97965 43.6823 7.67529 42.9679 7.67529 42.1265C7.67529 41.5607 7.81673 41.0361 8.09961 40.5527C8.38607 40.0658 8.77816 39.6862 9.27588 39.4141C9.7736 39.1419 10.3304 39.0059 10.9463 39.0059C11.333 39.0059 11.7054 39.0649 12.0635 39.1831C12.4251 39.3013 12.7313 39.4552 12.9819 39.645C13.2326 39.8348 13.4456 40.0765 13.6211 40.3701ZM20.0181 45H19.2178L17.2627 40.7461L15.3237 45H14.5181L17.1929 39.1562H17.3271L20.0181 45ZM20.5444 39.1562H21.3394L23.3481 43.6572L25.2979 39.1562H26.0981L22.6123 47.1377H21.8174L22.9453 44.5596L20.5444 39.1562ZM27.8169 39.8169V45H27.0703V39.1562H30.0244V39.8169H27.8169ZM31.7969 39.1562V43.48L36.0884 39.1562H36.1475V45H35.3955V40.7139L31.1362 45H31.0449V39.1562H31.7969Z" fill="white"/>
<path d="M16.4819 8.01752C16.4078 7.57342 16.3662 6.99977 16.3662 6.30062C16.3662 3.89192 18.9542 1 23.0839 1C27.7318 1 29.8089 3.89192 29.8089 6.30062C29.8089 7.02258 29.7526 7.58483 29.6361 8.0053C30.2415 8.02974 30.7761 8.81771 30.7761 9.79064C30.7761 10.7799 30.3703 11.5809 29.7526 11.5809C29.6239 11.5809 29.6948 11.5393 29.5791 11.4749C29.1904 13.4167 27.6307 14.9324 26.8159 15.7717V17.3712C29.2605 17.9025 31.705 19.529 31.705 21.1595V21.8195C31.705 22.4812 31.0344 22.4812 30.3719 22.4812H17.0376" stroke="white"/>
<path d="M17.0377 23.8901V22.2905C17.8525 21.4512 19.4121 19.9356 19.8008 17.9938C19.9165 18.0581 19.8456 18.0997 19.9744 18.0997C20.5921 18.0997 20.9978 17.2987 20.9978 16.3095C20.9978 15.3365 20.4633 14.5486 19.8579 14.5241C19.9744 14.1037 20.0306 13.5414 20.0306 12.8195C20.0306 10.4107 17.9536 7.51883 13.3056 7.51883C9.17514 7.51883 6.58798 10.4107 6.58798 12.8195C6.58798 13.5186 6.62953 14.0923 6.70368 14.5363C6.13573 14.6219 5.68756 15.3781 5.68756 16.3087C5.68756 17.2979 6.18788 18.0989 6.80636 18.0989C6.93429 18.0989 6.75013 18.0573 6.86503 17.993C7.25371 19.9356 8.88912 21.4504 9.70398 22.2905V23.7955C6.44456 24.1964 4 25.937 4 27.6783V28.3392C4 29 4.67062 29 5.33147 29H20.5937C21.2562 29 21.9268 29 21.9268 28.3383V27.6775C21.9268 26.0478 19.4822 24.4213 17.0377 23.8901Z" stroke="white"/>
</svg>
