<svg width="51" height="46" viewBox="0 0 51 46" fill="none" xmlns="http://www.w3.org/2000/svg">
<path d="M3.3335 36.0991H8.94092V44H8.146V36.8511H4.12842V44H3.3335V36.0991ZM13.5063 38.0059C14.4051 38.0059 15.1499 38.3317 15.7407 38.9834C16.2778 39.5778 16.5464 40.2814 16.5464 41.0942C16.5464 41.9106 16.2617 42.625 15.6924 43.2373C15.1266 43.846 14.3979 44.1504 13.5063 44.1504C12.6112 44.1504 11.8789 43.846 11.3096 43.2373C10.7438 42.625 10.4609 41.9106 10.4609 41.0942C10.4609 40.285 10.7295 39.5832 11.2666 38.9888C11.8574 38.3335 12.604 38.0059 13.5063 38.0059ZM13.5063 38.7417C12.8833 38.7417 12.348 38.9727 11.9004 39.4346C11.4528 39.8965 11.229 40.4551 11.229 41.1104C11.229 41.5329 11.3311 41.9268 11.5352 42.292C11.7393 42.6572 12.015 42.9401 12.3623 43.1406C12.7096 43.3376 13.091 43.436 13.5063 43.436C13.9217 43.436 14.3031 43.3376 14.6504 43.1406C14.9977 42.9401 15.2734 42.6572 15.4775 42.292C15.6816 41.9268 15.7837 41.5329 15.7837 41.1104C15.7837 40.4551 15.5581 39.8965 15.1069 39.4346C14.6593 38.9727 14.1258 38.7417 13.5063 38.7417ZM22.8682 42.061L23.502 42.394C23.2943 42.8022 23.0544 43.1317 22.7822 43.3823C22.5101 43.633 22.2039 43.8245 21.8638 43.957C21.5236 44.0859 21.1387 44.1504 20.709 44.1504C19.7565 44.1504 19.0117 43.8389 18.4746 43.2158C17.9375 42.5892 17.6689 41.882 17.6689 41.0942C17.6689 40.353 17.8963 39.6924 18.3511 39.1123C18.9276 38.3747 19.6992 38.0059 20.666 38.0059C21.6615 38.0059 22.4564 38.3836 23.0508 39.1392C23.4733 39.6727 23.6882 40.3387 23.6953 41.1372H18.4424C18.4567 41.8175 18.6733 42.3761 19.0923 42.813C19.5112 43.2463 20.0286 43.4629 20.6445 43.4629C20.9417 43.4629 21.23 43.411 21.5093 43.3071C21.7922 43.2033 22.0321 43.0654 22.229 42.8936C22.4259 42.7217 22.639 42.4442 22.8682 42.061ZM22.8682 40.4873C22.7679 40.0863 22.6211 39.7658 22.4277 39.5259C22.238 39.286 21.9855 39.0926 21.6704 38.9458C21.3553 38.799 21.0241 38.7256 20.6768 38.7256C20.1038 38.7256 19.6115 38.91 19.1997 39.2788C18.8989 39.5474 18.6715 39.9502 18.5176 40.4873H22.8682ZM26.0801 40.6162H26.4722C26.7228 40.6162 26.952 40.5339 27.1597 40.3691C27.3709 40.2044 27.4766 39.9681 27.4766 39.6602C27.4766 39.3988 27.3924 39.175 27.2241 38.9888C27.0558 38.799 26.798 38.7041 26.4507 38.7041C26.0461 38.7041 25.6396 38.8617 25.2314 39.1768L24.8071 38.6558C25.3335 38.2153 25.8921 37.9951 26.4829 37.9951C26.9699 37.9951 27.3781 38.1401 27.7075 38.4302C28.0369 38.7202 28.2017 39.0944 28.2017 39.5527C28.2017 40.1615 27.9331 40.575 27.396 40.7935C28.0978 41.0871 28.4487 41.6009 28.4487 42.335C28.4487 42.8005 28.284 43.2212 27.9546 43.5972C27.6287 43.9696 27.14 44.1558 26.4883 44.1558C25.6898 44.1558 25.047 43.8962 24.5601 43.377L25.0327 42.8398C25.3944 43.248 25.8581 43.4521 26.4238 43.4521C26.8034 43.4521 27.1006 43.3501 27.3154 43.146C27.5339 42.9419 27.6431 42.6733 27.6431 42.3403C27.6431 42.0145 27.5339 41.7531 27.3154 41.5562C27.097 41.3592 26.8392 41.2607 26.542 41.2607H26.0801V40.6162ZM29.8022 43.3608L32.0581 38.1562H32.4502L34.6899 43.3608H35.3936V44.7466H34.6685V44H29.8345V44.7788H29.0933V43.3608H29.8022ZM32.2407 39.3164L30.5327 43.3608H33.8789L32.2407 39.3164ZM36.4141 38.1562H37.1714V40.6162L39.873 38.1562H40.9204L37.9609 40.8311L41.1567 44H40.0933L37.4077 41.2983L37.1714 41.5078V44H36.4141V38.1562ZM47.7578 38.1562V44H47.0166V42.9956C46.7015 43.3787 46.347 43.667 45.9531 43.8604C45.5628 44.0537 45.1349 44.1504 44.6694 44.1504C43.8423 44.1504 43.1351 43.8514 42.5479 43.2534C41.9642 42.6519 41.6724 41.9214 41.6724 41.062C41.6724 40.2205 41.9678 39.5008 42.5586 38.9028C43.1494 38.3049 43.8602 38.0059 44.6909 38.0059C45.1707 38.0059 45.604 38.1079 45.9907 38.312C46.381 38.5161 46.723 38.8223 47.0166 39.2305V38.1562H47.7578ZM44.75 38.731C44.3311 38.731 43.9443 38.8348 43.5898 39.0425C43.2354 39.2466 42.9525 39.5348 42.7412 39.9072C42.5335 40.2796 42.4297 40.6735 42.4297 41.0889C42.4297 41.5007 42.5353 41.8945 42.7466 42.2705C42.9578 42.6465 43.2407 42.9401 43.5952 43.1514C43.9533 43.359 44.3364 43.4629 44.7446 43.4629C45.1564 43.4629 45.5467 43.359 45.9155 43.1514C46.2843 42.9437 46.5672 42.6626 46.7642 42.3081C46.9647 41.9536 47.0649 41.5544 47.0649 41.1104C47.0649 40.4336 46.8411 39.8678 46.3936 39.4131C45.9495 38.9583 45.4017 38.731 44.75 38.731Z" fill="white"/>
<path d="M39.5 14C39.5 21.4558 33.4558 27.5 26 27.5C18.5442 27.5 12.5 21.4558 12.5 14C12.5 6.54416 18.5442 0.5 26 0.5C33.4558 0.5 39.5 6.54416 39.5 14Z" stroke="white"/>
<path d="M28.0376 26.5166C28.3465 26.3068 28.7711 25.9138 29.2135 25.4962C29.2415 25.4698 29.2696 25.4433 29.2976 25.4168C29.4917 25.2335 29.6841 25.0517 29.8564 24.897C30.0454 24.7274 30.2428 24.5601 30.4091 24.4604L28.0376 26.5166ZM28.0376 26.5166C28.0488 26.4759 28.0609 26.4339 28.0738 26.3912C28.1897 26.0081 28.349 25.6527 28.5298 25.4726L28.5308 25.4716C28.7454 25.2567 28.8978 24.9429 29.0082 24.6446C29.1238 24.3325 29.2148 23.9769 29.2802 23.6281C29.3457 23.2786 29.3876 22.9237 29.4006 22.6102C29.413 22.3128 29.4021 22.0011 29.3314 21.765C29.1806 21.2583 28.7572 20.9769 28.4573 20.8131C28.3329 20.7451 28.2026 20.6837 28.0965 20.6337C28.07 20.6212 28.045 20.6094 28.022 20.5984C27.8873 20.5341 27.8274 20.4996 27.803 20.4802C27.7025 20.3999 27.4592 20.1416 27.2383 19.8188C27.131 19.6621 27.0391 19.5044 26.9755 19.3607C26.9098 19.2121 26.8893 19.1113 26.8889 19.0571C26.889 19.0571 26.8902 19.0405 26.901 19.0033C26.9131 18.9618 26.9334 18.9078 26.9638 18.8412C27.0249 18.7072 27.1148 18.5489 27.2232 18.3783C27.4394 18.0381 27.7042 17.689 27.8888 17.4552L28.2745 16.967L28.2216 16.9413C28.2235 16.9401 28.2255 16.9388 28.2274 16.9375C28.3609 16.8502 28.4253 16.7297 28.4524 16.6741C28.4805 16.6164 28.5021 16.5544 28.5147 16.5183L28.5164 16.5134L28.5182 16.5082C28.5328 16.4664 28.5438 16.435 28.5573 16.4022C28.5994 16.2998 28.6629 16.1793 28.9015 16.0877L28.9023 16.0873C29.0641 16.0249 29.2451 15.9463 29.4211 15.8699C29.4732 15.8473 29.5249 15.8248 29.5755 15.803C29.8064 15.7037 30.0261 15.6133 30.225 15.5491C30.4275 15.4837 30.5658 15.4603 30.6477 15.4624C30.7699 15.685 30.9216 15.958 31.2625 16.0866C31.4098 16.1421 31.574 16.1646 31.7279 16.1819C31.8025 16.1904 31.887 16.1987 31.979 16.2077L32.0067 16.2104C32.1108 16.2206 32.2279 16.2323 32.3621 16.247C32.8712 16.3034 33.1028 16.4006 33.2637 16.5356C33.4423 16.6854 33.5992 16.9334 33.8441 17.4538C33.8974 17.567 33.9469 17.6749 33.9914 17.7719C34.0406 17.8792 34.0837 17.973 34.1187 18.0454C34.1886 18.1901 34.2664 18.3377 34.3784 18.4635C34.5024 18.6026 34.6403 18.6853 34.7829 18.7508C34.8791 18.7949 35.0005 18.8408 35.133 18.891C35.1727 18.906 35.2134 18.9214 35.2547 18.9372L28.0376 26.5166ZM34.2966 20.741L33.8568 20.5031C33.8567 20.5032 33.8567 20.5034 33.8566 20.5035C33.8565 20.5036 33.8565 20.5037 33.8564 20.5038L34.2966 20.741ZM34.2966 20.741C34.5531 20.2649 34.8547 20.0877 35.2132 19.8772C35.4515 19.7372 35.7149 19.5824 36.0069 19.3153L29.6414 25.7799C30.0588 25.3856 30.4419 25.0237 30.6667 24.8889C31.5814 24.339 32.4704 23.6717 33.3244 22.8799M34.2966 20.741C34.1332 21.043 34.0774 21.3107 34.0232 21.5703C33.9355 21.9907 33.8523 22.39 33.3244 22.8799M33.3244 22.8799L32.9844 22.5132C32.9843 22.5133 32.9843 22.5133 32.9842 22.5134L33.3244 22.8799ZM31.0795 4.71753C31.2163 5.01125 31.3914 5.22548 31.6064 5.37115C31.818 5.51454 32.0297 5.56451 32.1811 5.59201C32.255 5.60545 32.3039 5.61318 32.3389 5.61871C32.3794 5.6251 32.4012 5.62855 32.4213 5.63445C32.5101 5.82864 32.6649 6.02586 32.8036 6.18728C32.7981 6.18783 32.7926 6.18841 32.7871 6.18902C32.5829 6.21172 32.3623 6.27875 32.1697 6.43436C31.9743 6.59234 31.8486 6.80867 31.7809 7.058L32.2635 7.18899L20.9899 3.37185C21.125 3.32286 21.328 3.27143 21.5976 3.20893C21.6632 3.19372 21.7323 3.17797 21.8038 3.16164C22.0138 3.11374 22.2455 3.06085 22.477 3.00208C23.0805 2.84881 23.7971 2.62974 24.2846 2.25549L24.285 2.25516C24.9088 1.77524 25.6766 1.75513 26.3709 1.96886L26.3713 1.96899C26.6183 2.04476 26.9501 2.09047 27.2538 2.12877C27.321 2.13725 27.3879 2.14547 27.4542 2.15362C27.7078 2.18478 27.9529 2.21491 28.1754 2.2543C28.2885 2.27431 28.3818 2.29465 28.4572 2.31419C28.3184 2.43134 28.1367 2.52159 27.8821 2.64811L27.8702 2.65399C27.5083 2.83381 27.03 3.08046 26.7062 3.64764C26.3857 4.20807 26.3865 4.7789 26.7016 5.21754C26.9923 5.6223 27.4826 5.81532 27.9437 5.81532C28.0029 5.81532 28.0687 5.81664 28.1389 5.81806C28.3991 5.82328 28.7216 5.82976 29.0078 5.77516C29.4246 5.69567 29.8241 5.48639 30.1227 5.01917L30.1232 5.01847C30.3017 4.73816 30.3429 4.42646 30.3438 4.17089C30.3444 3.98062 30.3222 3.79066 30.2991 3.62958C30.3424 3.66532 30.3874 3.70615 30.4339 3.7526C30.657 3.97594 30.8836 4.30126 31.0795 4.71753ZM31.0795 4.71753C31.0793 4.7172 31.0791 4.71686 31.079 4.71653L31.5324 4.50566L31.0799 4.71842C31.0797 4.71813 31.0796 4.71783 31.0795 4.71753ZM27.1136 11.2219C27.1803 11.0788 27.2596 10.959 27.3252 10.8632C27.3405 10.8408 27.3549 10.82 27.3684 10.8004C27.4209 10.7245 27.4612 10.6661 27.4995 10.5994C27.6208 10.3868 27.7827 10.1349 27.968 9.84643C27.9812 9.82588 27.9945 9.80515 28.0079 9.78424C28.2132 9.46464 28.4535 9.08872 28.7235 8.63835L28.7237 8.63808C28.879 8.37925 29.0469 8.17106 29.2459 8.02814C29.4594 7.87478 29.6817 7.81603 29.9006 7.81638C30.0896 7.81668 30.2707 7.86272 30.3972 7.8949L30.4079 7.89764L30.4111 7.89845C30.5531 7.93453 30.6642 7.96274 30.7867 7.97468L30.7872 7.97473C31.0791 8.00347 31.258 7.98989 31.4342 7.97443C31.4443 7.97355 31.4544 7.97264 31.4647 7.97173C31.5527 7.96391 31.6471 7.95553 31.7536 7.95305C31.719 7.71951 31.6906 7.38789 31.7812 7.05696L27.1136 11.2219ZM27.1136 11.2219C27.0773 11.1919 27.0381 11.1639 26.996 11.1382C26.6502 10.9274 26.2427 10.9625 25.9348 11.0307L25.9343 11.0308C25.8966 11.0392 25.8539 11.0481 25.8075 11.0579C25.5653 11.1088 25.2206 11.1812 24.9403 11.3058C24.7663 11.3831 24.5686 11.4997 24.419 11.6852C24.2572 11.8859 24.1759 12.1384 24.2044 12.4227M27.1136 11.2219L24.2044 12.4227M24.2044 12.4227C24.2044 12.4226 24.2044 12.4225 24.2044 12.4224L24.7015 12.3729L24.2044 12.4229C24.2044 12.4228 24.2044 12.4228 24.2044 12.4227ZM24.5889 14.5528C24.1945 14.4765 23.9817 14.2983 23.6333 14.0065C23.5202 13.9118 23.3927 13.805 23.2401 13.6859L23.2394 13.6854C23.0819 13.5629 22.8767 13.4333 22.6852 13.3124L22.6733 13.3049C22.4685 13.1755 22.2658 13.0474 22.0836 12.9143C21.8985 12.7791 21.7613 12.6577 21.6768 12.5515C21.6078 12.4648 21.601 12.4231 21.6004 12.4165M24.5889 14.5528L16.102 5.23677C16.2848 5.05399 17.1995 5.29821 17.3208 5.96865L17.8127 5.87906C17.8127 5.87915 17.8127 5.87925 17.8128 5.87934C17.9501 6.63396 17.8844 7.46336 17.6032 8.16771L17.6029 8.16843C17.5976 8.18157 17.5843 8.22578 17.6178 8.33843C17.6526 8.45502 17.725 8.60176 17.8389 8.78689C17.9372 8.94659 18.0518 9.11216 18.178 9.29449C18.1971 9.32209 18.2165 9.35008 18.2361 9.37849C18.3809 9.58809 18.5368 9.81731 18.6704 10.0514M24.5889 14.5528C24.5902 14.5531 24.5915 14.5533 24.5928 14.5536L24.5889 14.5528ZM24.5889 14.5528C24.5897 14.5537 24.5906 14.5546 24.5914 14.5554L24.5889 14.5528ZM21.6004 12.4165C21.6323 12.0603 21.4651 11.7704 21.2922 11.5715C21.1169 11.3698 20.8899 11.2063 20.6788 11.0814C20.4639 10.9542 20.2407 10.8524 20.0522 10.7816C19.9577 10.7461 19.867 10.7164 19.786 10.6949C19.7174 10.6768 19.6162 10.6533 19.5172 10.6533C19.4066 10.6533 19.3029 10.6512 19.1797 10.5937C19.0604 10.5381 18.8727 10.4053 18.6704 10.0514M21.6004 12.4165C21.6004 12.4159 21.6004 12.4155 21.6004 12.4155C21.6004 12.4155 21.6005 12.4163 21.6003 12.4179L21.1023 12.3729M21.6004 12.4165C21.6004 12.4172 21.6003 12.4178 21.6003 12.4185L21.1023 12.3729M18.6704 10.0514C18.6704 10.0513 18.6704 10.0513 18.6704 10.0513L18.2362 10.2993L18.6704 10.0514ZM21.1023 12.3729C21.0569 12.8753 21.7971 13.3428 22.4026 13.7252C22.6061 13.8538 22.7943 13.9727 22.9325 14.0801C23.0487 14.1708 23.1558 14.2612 23.2593 14.3484C23.6448 14.6734 23.9793 14.9554 24.5409 15.0523C24.9764 15.1274 25.4569 15.5913 25.8482 15.9692L21.1023 12.3729ZM27.7572 26.6496C27.7573 26.6492 27.7602 26.649 27.7655 26.6498C27.7598 26.6503 27.7572 26.6499 27.7572 26.6496ZM30.6184 15.4094L30.6186 15.4096L30.6184 15.4094ZM28.6965 2.40237C28.6965 2.40237 28.6961 2.40212 28.6955 2.4016L28.6965 2.40237ZM31.8034 8.28955C31.8034 8.28949 31.8034 8.28809 31.8035 8.28552C31.8036 8.28832 31.8035 8.28961 31.8034 8.28955ZM32.1433 7.97324C32.1455 7.97335 32.1467 7.97349 32.1467 7.97353L32.1433 7.97324ZM16.2524 4.67933C17.1681 3.71696 18.2211 2.88914 19.3842 2.23274C19.404 2.23387 19.4221 2.23545 19.4384 2.23739C19.4419 2.2378 19.4452 2.23823 19.4484 2.23866C19.471 2.3306 19.4976 2.43613 19.5287 2.53649C19.5732 2.68036 19.6377 2.85294 19.7418 3.0083C19.8498 3.1693 20.0148 3.33255 20.2595 3.41029C20.502 3.48729 20.7524 3.45806 20.9897 3.37192L16.2524 4.67933ZM25.7819 15.222C25.6598 15.114 25.5292 15.0063 25.394 14.9105C25.5489 14.9151 25.687 14.8907 25.7936 14.8666C25.8533 14.8532 25.9125 14.8375 25.9595 14.825C25.9678 14.8228 25.9757 14.8207 25.9832 14.8187C26.0351 14.805 26.0698 14.7965 26.0977 14.7912C26.101 14.7928 26.1043 14.7944 26.1077 14.796C26.0052 14.8847 25.8619 15.0267 25.7819 15.222ZM24.6259 14.5596C24.6152 14.5578 24.6047 14.5558 24.5943 14.5539L24.6259 14.5596Z" stroke="white"/>
</svg>
