<svg width="43" height="46" viewBox="0 0 43 46" fill="none" xmlns="http://www.w3.org/2000/svg">
<path d="M1.73486 44H0.950684V36.0991H4.90918V36.8779H1.73486V44ZM10.8657 44H10.0654L8.11035 39.7461L6.17139 44H5.36572L8.04053 38.1562H8.1748L10.8657 44ZM17.8428 38.1562V44H17.1016V42.9956C16.7865 43.3787 16.432 43.667 16.0381 43.8604C15.6478 44.0537 15.2199 44.1504 14.7544 44.1504C13.9272 44.1504 13.2201 43.8514 12.6328 43.2534C12.0492 42.6519 11.7573 41.9214 11.7573 41.062C11.7573 40.2205 12.0527 39.5008 12.6436 38.9028C13.2344 38.3049 13.9451 38.0059 14.7759 38.0059C15.2557 38.0059 15.689 38.1079 16.0757 38.312C16.466 38.5161 16.8079 38.8223 17.1016 39.2305V38.1562H17.8428ZM14.835 38.731C14.416 38.731 14.0293 38.8348 13.6748 39.0425C13.3203 39.2466 13.0374 39.5348 12.8262 39.9072C12.6185 40.2796 12.5146 40.6735 12.5146 41.0889C12.5146 41.5007 12.6203 41.8945 12.8315 42.2705C13.0428 42.6465 13.3257 42.9401 13.6802 43.1514C14.0382 43.359 14.4214 43.4629 14.8296 43.4629C15.2414 43.4629 15.6317 43.359 16.0005 43.1514C16.3693 42.9437 16.6522 42.6626 16.8491 42.3081C17.0496 41.9536 17.1499 41.5544 17.1499 41.1104C17.1499 40.4336 16.9261 39.8678 16.4785 39.4131C16.0345 38.9583 15.4867 38.731 14.835 38.731ZM21.2373 44H19.54V38.1562H21.2104C21.8478 38.1562 22.3062 38.3031 22.5854 38.5967C22.8683 38.8903 23.0098 39.234 23.0098 39.6279C23.0098 40.2223 22.7484 40.6252 22.2256 40.8364C22.9847 41.105 23.3643 41.6224 23.3643 42.3887C23.3643 43.4629 22.6553 44 21.2373 44ZM20.2974 38.8062V40.6323H20.7861C21.2301 40.6323 21.5202 40.6144 21.6562 40.5786C21.7923 40.5428 21.9194 40.4551 22.0376 40.3154C22.1593 40.1722 22.2202 39.9842 22.2202 39.7515C22.2202 39.508 22.1576 39.3039 22.0322 39.1392C21.9069 38.9744 21.7744 38.8778 21.6348 38.8491C21.4987 38.8205 21.2158 38.8062 20.7861 38.8062H20.2974ZM20.2974 41.3198V43.3662H21.103C21.4826 43.3662 21.7529 43.3429 21.9141 43.2964C22.0788 43.2463 22.2184 43.1406 22.333 42.9795C22.4512 42.8184 22.5103 42.6143 22.5103 42.3672C22.5103 42.0485 22.41 41.7943 22.2095 41.6045C22.009 41.4147 21.744 41.3198 21.4146 41.3198H20.2974ZM28.8374 41.1855H25.4429V44H24.6855V38.1562H25.4429V40.4766H28.8374V38.1562H29.5894V44H28.8374V41.1855ZM37.0928 38.1562V44H36.3516V42.9956C36.0365 43.3787 35.682 43.667 35.2881 43.8604C34.8978 44.0537 34.4699 44.1504 34.0044 44.1504C33.1772 44.1504 32.4701 43.8514 31.8828 43.2534C31.2992 42.6519 31.0073 41.9214 31.0073 41.062C31.0073 40.2205 31.3027 39.5008 31.8936 38.9028C32.4844 38.3049 33.1951 38.0059 34.0259 38.0059C34.5057 38.0059 34.939 38.1079 35.3257 38.312C35.716 38.5161 36.0579 38.8223 36.3516 39.2305V38.1562H37.0928ZM34.085 38.731C33.666 38.731 33.2793 38.8348 32.9248 39.0425C32.5703 39.2466 32.2874 39.5348 32.0762 39.9072C31.8685 40.2796 31.7646 40.6735 31.7646 41.0889C31.7646 41.5007 31.8703 41.8945 32.0815 42.2705C32.2928 42.6465 32.5757 42.9401 32.9302 43.1514C33.2882 43.359 33.6714 43.4629 34.0796 43.4629C34.4914 43.4629 34.8817 43.359 35.2505 43.1514C35.6193 42.9437 35.9022 42.6626 36.0991 42.3081C36.2996 41.9536 36.3999 41.5544 36.3999 41.1104C36.3999 40.4336 36.1761 39.8678 35.7285 39.4131C35.2845 38.9583 34.7367 38.731 34.085 38.731ZM41.2554 41.3843H40.7183L39.0532 44H38.2422L39.9985 41.3091C39.5617 41.2554 39.2072 41.0907 38.9351 40.8149C38.6629 40.5356 38.5269 40.1901 38.5269 39.7783C38.5269 39.2627 38.6826 38.8634 38.9941 38.5806C39.3092 38.2977 39.721 38.1562 40.2295 38.1562H42.0073V44H41.2554V41.3843ZM41.2554 38.8062H40.7612C40.2814 38.8062 39.9591 38.8366 39.7944 38.8975C39.6297 38.9583 39.499 39.064 39.4023 39.2144C39.3057 39.3612 39.2573 39.5599 39.2573 39.8105C39.2573 40.0505 39.32 40.2492 39.4453 40.4067C39.5706 40.5607 39.7103 40.6556 39.8643 40.6914C40.0182 40.7272 40.3172 40.7451 40.7612 40.7451H41.2554V38.8062Z" fill="white"/>
<path d="M34.2481 12.1786C34.2472 12.178 34.2466 12.1772 34.2459 12.1765L22.823 0.755157C22.3361 0.268097 21.6887 0 21.0002 0C20.3116 0 19.6642 0.268097 19.1771 0.755157L7.76018 12.1707C7.75633 12.1746 7.75227 12.1786 7.74864 12.1825C6.74878 13.188 6.75049 14.8195 7.75355 15.8224C8.21182 16.2809 8.81686 16.5462 9.46399 16.5742C9.49048 16.5767 9.51698 16.578 9.54368 16.578H9.99874V24.9832C9.99874 26.6467 11.3524 28 13.016 28H17.4851C17.9382 28 18.3055 27.6326 18.3055 27.1797V20.5898C18.3055 19.8308 18.9231 19.2135 19.6822 19.2135H22.3181C23.0772 19.2135 23.6946 19.8308 23.6946 20.5898V27.1797C23.6946 27.6326 24.0619 28 24.515 28H28.9841C30.6479 28 32.0014 26.6467 32.0014 24.9832V16.578H32.4235C33.1119 16.578 33.7592 16.3099 34.2466 15.8226C35.2507 14.8182 35.2511 13.1837 34.2481 12.1786V12.1786ZM33.0863 14.6627C32.9091 14.8398 32.6737 14.9374 32.4235 14.9374H31.181C30.7278 14.9374 30.3606 15.3046 30.3606 15.7577V24.9832C30.3606 25.742 29.7431 26.3594 28.9841 26.3594H25.3354V20.5898C25.3354 18.9264 23.982 17.5728 22.3181 17.5728H19.6822C18.0183 17.5728 16.6647 18.9264 16.6647 20.5898V26.3594H13.016C12.2572 26.3594 11.6395 25.742 11.6395 24.9832V15.7577C11.6395 15.3046 11.2723 14.9374 10.8191 14.9374H9.59795C9.58513 14.9365 9.57252 14.9359 9.55949 14.9357C9.31508 14.9314 9.08584 14.8344 8.91407 14.6624C8.54874 14.2971 8.54874 13.7026 8.91407 13.3371C8.91428 13.3371 8.91428 13.3369 8.9145 13.3367L8.91514 13.3361L20.3376 1.91513C20.5145 1.73804 20.7498 1.64062 21.0002 1.64062C21.2503 1.64062 21.4856 1.73804 21.6627 1.91513L33.0826 13.3337C33.0843 13.3354 33.0863 13.3371 33.088 13.3388C33.4514 13.7048 33.4507 14.298 33.0863 14.6627V14.6627Z" fill="white"/>
</svg>
